<?xml version="1.0" standalone="no"?>
<!DOCTYPE svg PUBLIC "-//W3C//DTD SVG 20010904//EN"
 "http://www.w3.org/TR/2001/REC-SVG-20010904/DTD/svg10.dtd">
<svg version="1.0" xmlns="http://www.w3.org/2000/svg"
 width="280.000000pt" height="222.000000pt" viewBox="0 0 280.000000 222.000000"
 preserveAspectRatio="xMidYMid meet">

<g transform="translate(0.000000,222.000000) scale(0.100000,-0.100000)"
fill="#000000" stroke="none">
<path d="M1880 1893 c-269 -234 -342 -305 -361 -347 -22 -49 -24 -114 -5 -161
l15 -35 -65 -61 c-107 -104 -94 -102 -183 -18 -43 41 -82 82 -85 91 -4 9 0 31
9 48 61 118 -1 279 -147 383 -171 122 -360 176 -463 132 -43 -17 -55 -46 -55
-134 0 -82 20 -161 61 -244 72 -143 168 -246 264 -282 54 -21 163 -17 212 8
l32 17 78 -86 c43 -47 79 -89 81 -93 1 -4 -37 -45 -85 -91 -49 -46 -175 -170
-282 -275 l-194 -190 99 -3 99 -3 228 233 228 233 227 -232 228 -233 104 0
105 0 -120 117 c-66 65 -183 179 -260 255 l-141 139 -53 -12 c-29 -6 -54 -9
-57 -6 -2 2 44 54 103 116 l108 111 56 -16 c51 -15 60 -15 110 -1 66 20 119
71 353 342 139 160 176 215 147 215 -5 0 -70 -66 -146 -147 -149 -161 -162
-172 -171 -149 -4 11 40 66 135 171 78 85 141 160 141 165 0 6 -8 10 -19 10
-11 0 -75 -59 -157 -145 -131 -136 -164 -163 -164 -132 0 7 66 82 146 166 107
111 143 156 135 164 -13 13 -24 3 -198 -167 -93 -91 -125 -117 -139 -112 -15
6 10 35 134 159 143 143 170 177 140 177 -7 0 -83 -63 -168 -140 -85 -77 -159
-139 -164 -137 -24 8 -12 29 46 83 225 211 264 255 226 253 -7 0 -83 -61 -168
-136z m-994 -557 c17 -4 51 -2 75 5 66 17 94 16 94 -1 0 -18 -56 -39 -105 -39
-36 -1 -132 38 -145 59 -5 7 3 6 21 -3 16 -8 43 -18 60 -21z m916 3 c23 6 44
9 45 7 9 -9 -101 -56 -130 -56 -69 0 -106 27 -76 57 8 8 26 7 64 -3 39 -11 65
-12 97 -5z"/>
<path d="M1250 756 l0 -46 46 0 45 0 -3 43 c-3 42 -3 42 -45 45 l-43 3 0 -45z"/>
<path d="M1387 793 c-4 -3 -7 -24 -7 -45 l0 -38 45 0 45 0 0 45 0 45 -38 0
c-21 0 -42 -3 -45 -7z"/>
<path d="M1250 615 l0 -45 45 0 45 0 0 45 0 45 -45 0 -45 0 0 -45z"/>
<path d="M1380 615 l0 -45 45 0 45 0 0 45 0 45 -45 0 -45 0 0 -45z"/>
<path d="M390 497 c0 -9 10 -23 23 -31 53 -34 418 -55 992 -57 301 -1 374 -4
320 -11 -38 -6 -256 -10 -483 -11 l-413 0 3 -21 c2 -15 16 -25 53 -38 154 -51
846 -51 1000 0 45 15 50 20 55 52 l5 35 95 7 c274 21 340 35 340 75 0 14 -13
15 -117 9 -153 -8 -1603 -8 -1755 0 -105 6 -118 5 -118 -9z"/>
</g>
</svg>
